<svg width="93" height="49" viewBox="0 0 93 49" fill="none" xmlns="http://www.w3.org/2000/svg">
<path d="M6.76136 9.90909L14.3324 32.8068H14.6307L22.1875 9.90909H27.983L17.7273 39H11.2216L0.980114 9.90909H6.76136ZM30.6669 39V21.5455H42.0192V24.196H33.8288V28.9347H41.4311V31.5852H33.8288V36.3494H42.0874V39H30.6669ZM45.245 39V21.5455H51.7905C53.1314 21.5455 54.2564 21.7784 55.1655 22.2443C56.0803 22.7102 56.7706 23.3636 57.2365 24.2045C57.7081 25.0398 57.9439 26.0142 57.9439 27.1278C57.9439 28.2472 57.7053 29.2187 57.228 30.0426C56.7564 30.8608 56.0604 31.4943 55.1399 31.9432C54.2195 32.3864 53.0888 32.608 51.7479 32.608H47.0859V29.983H51.3217C52.1058 29.983 52.7479 29.875 53.2479 29.6591C53.7479 29.4375 54.1172 29.1165 54.3558 28.696C54.6001 28.2699 54.7223 27.7472 54.7223 27.1278C54.7223 26.5085 54.6001 25.9801 54.3558 25.5426C54.1115 25.0994 53.7393 24.7642 53.2393 24.5369C52.7393 24.304 52.0945 24.1875 51.3047 24.1875H48.407V39H45.245ZM54.2621 31.0909L58.5831 39H55.0547L50.8104 31.0909H54.2621ZM70.3402 26.3438C70.2607 25.5994 69.9254 25.0199 69.3345 24.6051C68.7493 24.1903 67.9879 23.983 67.0504 23.983C66.3913 23.983 65.826 24.0824 65.3544 24.2812C64.8828 24.4801 64.522 24.75 64.272 25.0909C64.022 25.4318 63.8942 25.821 63.8885 26.2585C63.8885 26.6222 63.9709 26.9375 64.1357 27.2045C64.3061 27.4716 64.5362 27.6989 64.826 27.8864C65.1158 28.0682 65.4368 28.2216 65.7891 28.3466C66.1413 28.4716 66.4964 28.5767 66.8544 28.6619L68.4908 29.071C69.1499 29.2244 69.7834 29.4318 70.3913 29.6932C71.005 29.9545 71.5533 30.2841 72.0362 30.6818C72.5249 31.0795 72.9112 31.5597 73.1953 32.1222C73.4794 32.6847 73.6214 33.3437 73.6214 34.0994C73.6214 35.1222 73.3601 36.0227 72.8374 36.8011C72.3146 37.5739 71.5589 38.179 70.5703 38.6165C69.5874 39.0483 68.397 39.2642 66.9993 39.2642C65.6413 39.2642 64.4624 39.054 63.4624 38.6335C62.468 38.2131 61.6896 37.5994 61.1271 36.7926C60.5703 35.9858 60.2692 35.0028 60.2237 33.8438H63.3345C63.38 34.4517 63.5675 34.9574 63.897 35.3608C64.2266 35.7642 64.6555 36.0653 65.1839 36.2642C65.718 36.4631 66.3146 36.5625 66.9737 36.5625C67.6612 36.5625 68.2635 36.4602 68.7805 36.2557C69.3033 36.0455 69.7124 35.7557 70.0078 35.3864C70.3033 35.0114 70.4538 34.5739 70.4595 34.0739C70.4538 33.6193 70.3203 33.2443 70.0589 32.9489C69.7976 32.6477 69.4311 32.3977 68.9595 32.1989C68.4936 31.9943 67.9482 31.8125 67.3232 31.6534L65.3374 31.142C63.8999 30.7727 62.7635 30.2131 61.9283 29.4631C61.0987 28.7074 60.6839 27.7045 60.6839 26.4545C60.6839 25.4261 60.9624 24.5256 61.5192 23.7528C62.0817 22.9801 62.8459 22.3807 63.8118 21.9545C64.7777 21.5227 65.8714 21.3068 67.093 21.3068C68.3317 21.3068 69.4169 21.5227 70.3487 21.9545C71.2862 22.3807 72.022 22.9744 72.5561 23.7358C73.0902 24.4915 73.3658 25.3608 73.3828 26.3438H70.3402ZM76.4403 39V21.5455H87.7926V24.196H79.6023V28.9347H87.2045V31.5852H79.6023V36.3494H87.8608V39H76.4403Z" fill="black"/>
</svg>
